<mxfile host="app.diagrams.net" modified="2024-01-09T09:56:49.217Z" agent="Mozilla/5.0 (Macintosh; Intel Mac OS X 10_15_7) AppleWebKit/537.36 (KHTML, like Gecko) Chrome/119.0.0.0 Safari/537.36" version="22.1.17" etag="v0g7ReZqgUBn3vjEUOn0" type="github">
  <diagram name="Pagina-1" id="dJseVk-8xskkWUgzwAIB">
    <mxGraphModel>
      <root>
        <mxCell id="0" />
        <mxCell id="1" parent="0" />
      </root>
    </mxGraphModel>
  </diagram>
</mxfile>
